# xmcd
#
# Track frame offsets: 
#        150
#        12265
#        24336
#        37197
#        49446
#        62154
#        74695
#        85846
#        99217
#        109817
#
# Disc length: 1638 seconds
#
# Revision: 0
# Processed by: cddbd v1.5.2PL0 Copyright (c) Steve Scherf et al.
# Submitted via: ExactAudioCopy v0.95b3
#
DISCID=8506640a
DTITLE=Merle Haggard - Okie From Muskogee
DYEAR=2003
DGENRE=
TTITLE0=Okie From Muskogee
TTITLE1=I Take A Lot of Pride In What I Am
TTITLE2=The Way I Am
TTITLE3=Roots of My Raising
TTITLE4=Sing Me Back Home
TTITLE5=Silver Wings
TTITLE6=Mt Friends Are Gonna Be Strangers
TTITLE7=Cherokee Maiden
TTITLE8=Old Man From the Mountain
TTITLE9=The Farmers Daughter
EXTD=
EXTT0=
EXTT1=
EXTT2=
EXTT3=
EXTT4=
EXTT5=
EXTT6=
EXTT7=
EXTT8=
EXTT9=
PLAYORDER=
